STARTFONT 2.1
FONT -Fondu--Medium-R-Normal--15-140-75-75-P-66-MacRoman-1
SIZE 14 75 75
FONTBOUNDINGBOX 11 15 0 -3
COMMENT Created by Fondu from a mac NFNT/FONT resource
STARTPROPERTIES 17
FOUNDRY "Fondu"
FAMILY_NAME ""
WEIGHT_NAME "Medium"
SLANT "R"
SETWIDTH_NAME "Normal"
ADD_STYLE_NAME ""
PIXEL_SIZE 15
POINT_SIZE 140
RESOLUTION_X 75
RESOLUTION_Y 75
SPACING "P"
AVERAGE_WIDTH 66
CHARSET_REGISTRY "MacRoman"
CHARSET_ENCODING "1"
FONT_ASCENT 12
FONT_DESCENT 3
FACE_NAME "nameless"
ENDPROPERTIES
CHARS 223
STARTCHAR space
ENCODING 32
SWIDTH 200 0
DWIDTH 3 0
BBX 0 0 0 -3
BITMAP
ENDCHAR
STARTCHAR exclam
ENCODING 33
SWIDTH 200 0
DWIDTH 3 0
BBX 1 9 1 0
BITMAP
80
80
80
80
80
80
80
00
80
ENDCHAR
STARTCHAR quotedbl
ENCODING 34
SWIDTH 266 0
DWIDTH 4 0
BBX 3 2 0 7
BITMAP
A0
A0
ENDCHAR
STARTCHAR numbersign
ENCODING 35
SWIDTH 466 0
DWIDTH 7 0
BBX 7 8 0 1
BITMAP
14
14
7E
28
28
FC
50
50
ENDCHAR
STARTCHAR dollar
ENCODING 36
SWIDTH 466 0
DWIDTH 7 0
BBX 5 10 1 -1
BITMAP
20
70
A8
A0
60
30
A8
A8
70
20
ENDCHAR
STARTCHAR percent
ENCODING 37
SWIDTH 733 0
DWIDTH 11 0
BBX 9 9 0 0
BITMAP
6080
9100
9200
6400
0800
1300
2480
4480
8300
ENDCHAR
STARTCHAR ampersand
ENCODING 38
SWIDTH 533 0
DWIDTH 8 0
BBX 8 9 0 0
BITMAP
20
50
50
20
52
8A
84
8A
71
ENDCHAR
STARTCHAR quotesingle
ENCODING 39
SWIDTH 200 0
DWIDTH 3 0
BBX 1 2 1 7
BITMAP
80
80
ENDCHAR
STARTCHAR parenleft
ENCODING 40
SWIDTH 266 0
DWIDTH 4 0
BBX 3 12 0 -3
BITMAP
20
40
40
80
80
80
80
80
80
40
40
20
ENDCHAR
STARTCHAR parenright
ENCODING 41
SWIDTH 266 0
DWIDTH 4 0
BBX 3 12 0 -3
BITMAP
80
40
40
20
20
20
20
20
20
40
40
80
ENDCHAR
STARTCHAR asterisk
ENCODING 42
SWIDTH 333 0
DWIDTH 5 0
BBX 5 6 0 3
BITMAP
20
20
F8
70
50
88
ENDCHAR
STARTCHAR plus
ENCODING 43
SWIDTH 466 0
DWIDTH 7 0
BBX 5 5 1 1
BITMAP
20
20
F8
20
20
ENDCHAR
STARTCHAR comma
ENCODING 44
SWIDTH 200 0
DWIDTH 3 0
BBX 2 3 0 -2
BITMAP
40
40
80
ENDCHAR
STARTCHAR hyphen
ENCODING 45
SWIDTH 266 0
DWIDTH 4 0
BBX 3 1 0 3
BITMAP
E0
ENDCHAR
STARTCHAR period
ENCODING 46
SWIDTH 200 0
DWIDTH 3 0
BBX 1 1 1 0
BITMAP
80
ENDCHAR
STARTCHAR slash
ENCODING 47
SWIDTH 200 0
DWIDTH 3 0
BBX 2 9 0 0
BITMAP
40
40
40
40
40
80
80
80
80
ENDCHAR
STARTCHAR zero
ENCODING 48
SWIDTH 466 0
DWIDTH 7 0
BBX 5 9 1 0
BITMAP
70
88
88
88
88
88
88
88
70
ENDCHAR
STARTCHAR one
ENCODING 49
SWIDTH 466 0
DWIDTH 7 0
BBX 3 9 1 0
BITMAP
20
60
A0
20
20
20
20
20
20
ENDCHAR
STARTCHAR two
ENCODING 50
SWIDTH 466 0
DWIDTH 7 0
BBX 5 9 1 0
BITMAP
70
88
08
08
10
20
40
80
F8
ENDCHAR
STARTCHAR three
ENCODING 51
SWIDTH 466 0
DWIDTH 7 0
BBX 5 9 1 0
BITMAP
70
88
08
08
30
08
08
88
70
ENDCHAR
STARTCHAR four
ENCODING 52
SWIDTH 466 0
DWIDTH 7 0
BBX 6 9 0 0
BITMAP
08
18
28
48
88
FC
08
08
08
ENDCHAR
STARTCHAR five
ENCODING 53
SWIDTH 466 0
DWIDTH 7 0
BBX 5 9 1 0
BITMAP
F8
80
80
E0
10
08
08
90
60
ENDCHAR
STARTCHAR six
ENCODING 54
SWIDTH 466 0
DWIDTH 7 0
BBX 5 9 1 0
BITMAP
70
88
80
F0
88
88
88
88
70
ENDCHAR
STARTCHAR seven
ENCODING 55
SWIDTH 466 0
DWIDTH 7 0
BBX 5 9 1 0
BITMAP
F8
08
08
10
10
10
20
20
20
ENDCHAR
STARTCHAR eight
ENCODING 56
SWIDTH 466 0
DWIDTH 7 0
BBX 5 9 1 0
BITMAP
70
88
88
88
70
88
88
88
70
ENDCHAR
STARTCHAR nine
ENCODING 57
SWIDTH 466 0
DWIDTH 7 0
BBX 5 9 1 0
BITMAP
70
88
88
88
88
78
08
88
70
ENDCHAR
STARTCHAR colon
ENCODING 58
SWIDTH 200 0
DWIDTH 3 0
BBX 1 7 1 0
BITMAP
80
00
00
00
00
00
80
ENDCHAR
STARTCHAR semicolon
ENCODING 59
SWIDTH 200 0
DWIDTH 3 0
BBX 2 9 0 -2
BITMAP
40
00
00
00
00
00
40
40
80
ENDCHAR
STARTCHAR less
ENCODING 60
SWIDTH 466 0
DWIDTH 7 0
BBX 6 5 0 1
BITMAP
0C
30
C0
30
0C
ENDCHAR
STARTCHAR equal
ENCODING 61
SWIDTH 466 0
DWIDTH 7 0
BBX 6 3 0 2
BITMAP
FC
00
FC
ENDCHAR
STARTCHAR greater
ENCODING 62
SWIDTH 466 0
DWIDTH 7 0
BBX 6 5 0 1
BITMAP
C0
30
0C
30
C0
ENDCHAR
STARTCHAR question
ENCODING 63
SWIDTH 466 0
DWIDTH 7 0
BBX 5 9 1 0
BITMAP
70
88
88
08
10
20
20
00
20
ENDCHAR
STARTCHAR at
ENCODING 64
SWIDTH 800 0
DWIDTH 12 0
BBX 10 11 1 -2
BITMAP
1E00
6180
4C80
9240
A240
A240
A640
9980
4000
6100
1E00
ENDCHAR
STARTCHAR A
ENCODING 65
SWIDTH 533 0
DWIDTH 8 0
BBX 7 9 0 0
BITMAP
10
10
10
28
28
44
7C
82
82
ENDCHAR
STARTCHAR B
ENCODING 66
SWIDTH 533 0
DWIDTH 8 0
BBX 6 9 1 0
BITMAP
F8
84
84
84
F8
84
84
84
F8
ENDCHAR
STARTCHAR C
ENCODING 67
SWIDTH 600 0
DWIDTH 9 0
BBX 7 9 1 0
BITMAP
38
44
82
80
80
80
82
44
38
ENDCHAR
STARTCHAR D
ENCODING 68
SWIDTH 600 0
DWIDTH 9 0
BBX 7 9 1 0
BITMAP
F8
84
82
82
82
82
82
84
F8
ENDCHAR
STARTCHAR E
ENCODING 69
SWIDTH 533 0
DWIDTH 8 0
BBX 6 9 1 0
BITMAP
FC
80
80
80
FC
80
80
80
FC
ENDCHAR
STARTCHAR F
ENCODING 70
SWIDTH 466 0
DWIDTH 7 0
BBX 5 9 1 0
BITMAP
F8
80
80
80
F8
80
80
80
80
ENDCHAR
STARTCHAR G
ENCODING 71
SWIDTH 600 0
DWIDTH 9 0
BBX 8 9 0 0
BITMAP
3C
42
81
80
87
81
81
43
3D
ENDCHAR
STARTCHAR H
ENCODING 72
SWIDTH 600 0
DWIDTH 9 0
BBX 7 9 1 0
BITMAP
82
82
82
82
FE
82
82
82
82
ENDCHAR
STARTCHAR I
ENCODING 73
SWIDTH 200 0
DWIDTH 3 0
BBX 1 9 1 0
BITMAP
80
80
80
80
80
80
80
80
80
ENDCHAR
STARTCHAR J
ENCODING 74
SWIDTH 400 0
DWIDTH 6 0
BBX 5 9 0 0
BITMAP
08
08
08
08
08
08
88
88
70
ENDCHAR
STARTCHAR K
ENCODING 75
SWIDTH 533 0
DWIDTH 8 0
BBX 6 9 1 0
BITMAP
84
88
90
A0
C0
A0
90
88
84
ENDCHAR
STARTCHAR L
ENCODING 76
SWIDTH 466 0
DWIDTH 7 0
BBX 5 9 1 0
BITMAP
80
80
80
80
80
80
80
80
F8
ENDCHAR
STARTCHAR M
ENCODING 77
SWIDTH 666 0
DWIDTH 10 0
BBX 9 9 0 0
BITMAP
8080
C180
C180
A280
A280
9480
9480
8880
8880
ENDCHAR
STARTCHAR N
ENCODING 78
SWIDTH 600 0
DWIDTH 9 0
BBX 7 9 1 0
BITMAP
82
82
C2
A2
92
8A
86
82
82
ENDCHAR
STARTCHAR O
ENCODING 79
SWIDTH 600 0
DWIDTH 9 0
BBX 8 9 0 0
BITMAP
3C
42
81
81
81
81
81
42
3C
ENDCHAR
STARTCHAR P
ENCODING 80
SWIDTH 533 0
DWIDTH 8 0
BBX 6 9 1 0
BITMAP
F8
84
84
84
84
F8
80
80
80
ENDCHAR
STARTCHAR Q
ENCODING 81
SWIDTH 600 0
DWIDTH 9 0
BBX 8 9 0 0
BITMAP
3C
42
81
81
81
81
85
42
3D
ENDCHAR
STARTCHAR R
ENCODING 82
SWIDTH 533 0
DWIDTH 8 0
BBX 6 9 1 0
BITMAP
F8
84
84
84
84
F8
84
84
84
ENDCHAR
STARTCHAR S
ENCODING 83
SWIDTH 600 0
DWIDTH 9 0
BBX 6 9 1 0
BITMAP
78
84
80
60
18
04
04
84
78
ENDCHAR
STARTCHAR T
ENCODING 84
SWIDTH 466 0
DWIDTH 7 0
BBX 7 9 0 0
BITMAP
FE
10
10
10
10
10
10
10
10
ENDCHAR
STARTCHAR U
ENCODING 85
SWIDTH 600 0
DWIDTH 9 0
BBX 7 9 1 0
BITMAP
82
82
82
82
82
82
82
44
38
ENDCHAR
STARTCHAR V
ENCODING 86
SWIDTH 533 0
DWIDTH 8 0
BBX 7 9 0 0
BITMAP
82
82
44
44
28
28
10
10
10
ENDCHAR
STARTCHAR W
ENCODING 87
SWIDTH 733 0
DWIDTH 11 0
BBX 11 9 0 0
BITMAP
8420
8420
4440
4A40
2A80
2A80
1100
1100
1100
ENDCHAR
STARTCHAR X
ENCODING 88
SWIDTH 533 0
DWIDTH 8 0
BBX 7 9 0 0
BITMAP
82
44
44
28
10
28
44
44
82
ENDCHAR
STARTCHAR Y
ENCODING 89
SWIDTH 533 0
DWIDTH 8 0
BBX 7 9 0 0
BITMAP
82
44
28
10
10
10
10
10
10
ENDCHAR
STARTCHAR Z
ENCODING 90
SWIDTH 466 0
DWIDTH 7 0
BBX 6 9 0 0
BITMAP
FC
04
08
10
20
20
40
80
FC
ENDCHAR
STARTCHAR bracketleft
ENCODING 91
SWIDTH 200 0
DWIDTH 3 0
BBX 2 12 0 -3
BITMAP
C0
80
80
80
80
80
80
80
80
80
80
C0
ENDCHAR
STARTCHAR backslash
ENCODING 92
SWIDTH 200 0
DWIDTH 3 0
BBX 2 9 0 0
BITMAP
80
80
80
80
40
40
40
40
40
ENDCHAR
STARTCHAR bracketright
ENCODING 93
SWIDTH 200 0
DWIDTH 3 0
BBX 2 12 0 -3
BITMAP
C0
40
40
40
40
40
40
40
40
40
40
C0
ENDCHAR
STARTCHAR asciicircum
ENCODING 94
SWIDTH 400 0
DWIDTH 6 0
BBX 5 3 0 6
BITMAP
20
50
88
ENDCHAR
STARTCHAR underscore
ENCODING 95
SWIDTH 466 0
DWIDTH 7 0
BBX 7 1 0 -2
BITMAP
FE
ENDCHAR
STARTCHAR grave
ENCODING 96
SWIDTH 266 0
DWIDTH 4 0
BBX 2 2 1 7
BITMAP
80
40
ENDCHAR
STARTCHAR a
ENCODING 97
SWIDTH 466 0
DWIDTH 7 0
BBX 6 7 0 0
BITMAP
70
88
18
68
88
98
64
ENDCHAR
STARTCHAR b
ENCODING 98
SWIDTH 466 0
DWIDTH 7 0
BBX 6 9 0 0
BITMAP
80
80
B0
C8
84
84
84
C8
B0
ENDCHAR
STARTCHAR c
ENCODING 99
SWIDTH 400 0
DWIDTH 6 0
BBX 5 7 0 0
BITMAP
30
48
80
80
80
48
30
ENDCHAR
STARTCHAR d
ENCODING 100
SWIDTH 466 0
DWIDTH 7 0
BBX 6 9 0 0
BITMAP
04
04
34
4C
84
84
84
4C
34
ENDCHAR
STARTCHAR e
ENCODING 101
SWIDTH 466 0
DWIDTH 7 0
BBX 6 7 0 0
BITMAP
30
48
84
FC
80
48
30
ENDCHAR
STARTCHAR f
ENCODING 102
SWIDTH 200 0
DWIDTH 3 0
BBX 3 9 0 0
BITMAP
60
80
E0
80
80
80
80
80
80
ENDCHAR
STARTCHAR g
ENCODING 103
SWIDTH 466 0
DWIDTH 7 0
BBX 6 10 0 -3
BITMAP
34
4C
84
84
84
4C
34
04
48
30
ENDCHAR
STARTCHAR h
ENCODING 104
SWIDTH 466 0
DWIDTH 7 0
BBX 5 9 1 0
BITMAP
80
80
B0
C8
88
88
88
88
88
ENDCHAR
STARTCHAR i
ENCODING 105
SWIDTH 200 0
DWIDTH 3 0
BBX 1 9 1 0
BITMAP
80
00
80
80
80
80
80
80
80
ENDCHAR
STARTCHAR j
ENCODING 106
SWIDTH 200 0
DWIDTH 3 0
BBX 2 12 0 -3
BITMAP
40
00
40
40
40
40
40
40
40
40
40
80
ENDCHAR
STARTCHAR k
ENCODING 107
SWIDTH 400 0
DWIDTH 6 0
BBX 5 9 0 0
BITMAP
80
80
88
90
A0
C0
A0
90
88
ENDCHAR
STARTCHAR l
ENCODING 108
SWIDTH 200 0
DWIDTH 3 0
BBX 1 9 1 0
BITMAP
80
80
80
80
80
80
80
80
80
ENDCHAR
STARTCHAR m
ENCODING 109
SWIDTH 666 0
DWIDTH 10 0
BBX 9 7 0 0
BITMAP
B300
CC80
8880
8880
8880
8880
8880
ENDCHAR
STARTCHAR n
ENCODING 110
SWIDTH 466 0
DWIDTH 7 0
BBX 5 7 1 0
BITMAP
B0
C8
88
88
88
88
88
ENDCHAR
STARTCHAR o
ENCODING 111
SWIDTH 466 0
DWIDTH 7 0
BBX 6 7 0 0
BITMAP
30
48
84
84
84
48
30
ENDCHAR
STARTCHAR p
ENCODING 112
SWIDTH 466 0
DWIDTH 7 0
BBX 6 10 0 -3
BITMAP
B0
C8
84
84
84
C8
B0
80
80
80
ENDCHAR
STARTCHAR q
ENCODING 113
SWIDTH 466 0
DWIDTH 7 0
BBX 6 10 0 -3
BITMAP
34
4C
84
84
84
4C
34
04
04
04
ENDCHAR
STARTCHAR r
ENCODING 114
SWIDTH 266 0
DWIDTH 4 0
BBX 4 7 0 0
BITMAP
B0
C0
80
80
80
80
80
ENDCHAR
STARTCHAR s
ENCODING 115
SWIDTH 400 0
DWIDTH 6 0
BBX 5 7 0 0
BITMAP
70
88
80
70
08
88
70
ENDCHAR
STARTCHAR t
ENCODING 116
SWIDTH 200 0
DWIDTH 3 0
BBX 3 9 0 0
BITMAP
80
80
E0
80
80
80
80
80
60
ENDCHAR
STARTCHAR u
ENCODING 117
SWIDTH 466 0
DWIDTH 7 0
BBX 5 7 1 0
BITMAP
88
88
88
88
88
98
68
ENDCHAR
STARTCHAR v
ENCODING 118
SWIDTH 400 0
DWIDTH 6 0
BBX 5 7 0 0
BITMAP
88
88
50
50
20
20
20
ENDCHAR
STARTCHAR w
ENCODING 119
SWIDTH 600 0
DWIDTH 9 0
BBX 9 7 0 0
BITMAP
8880
8880
5500
5500
2200
2200
2200
ENDCHAR
STARTCHAR x
ENCODING 120
SWIDTH 400 0
DWIDTH 6 0
BBX 5 7 0 0
BITMAP
88
50
50
20
50
50
88
ENDCHAR
STARTCHAR y
ENCODING 121
SWIDTH 400 0
DWIDTH 6 0
BBX 5 10 0 -3
BITMAP
88
88
88
50
50
20
20
40
40
80
ENDCHAR
STARTCHAR z
ENCODING 122
SWIDTH 400 0
DWIDTH 6 0
BBX 5 7 0 0
BITMAP
F8
08
10
20
40
80
F8
ENDCHAR
STARTCHAR braceleft
ENCODING 123
SWIDTH 266 0
DWIDTH 4 0
BBX 3 12 0 -3
BITMAP
20
40
40
40
40
80
40
40
40
40
40
20
ENDCHAR
STARTCHAR bar
ENCODING 124
SWIDTH 200 0
DWIDTH 3 0
BBX 1 12 1 -3
BITMAP
80
80
80
80
80
80
80
80
80
80
80
80
ENDCHAR
STARTCHAR braceright
ENCODING 125
SWIDTH 266 0
DWIDTH 4 0
BBX 3 12 0 -3
BITMAP
80
40
40
40
40
20
40
40
40
40
40
80
ENDCHAR
STARTCHAR asciitilde
ENCODING 126
SWIDTH 466 0
DWIDTH 7 0
BBX 6 2 0 3
BITMAP
64
98
ENDCHAR
STARTCHAR Adieresis
ENCODING 128
SWIDTH 533 0
DWIDTH 8 0
BBX 7 10 0 0
BITMAP
44
10
10
10
28
28
44
7C
82
82
ENDCHAR
STARTCHAR Aring
ENCODING 129
SWIDTH 533 0
DWIDTH 8 0
BBX 7 11 0 0
BITMAP
7C
00
10
10
10
28
28
44
7C
82
82
ENDCHAR
STARTCHAR Ccedilla
ENCODING 130
SWIDTH 466 0
DWIDTH 7 0
BBX 6 9 0 0
BITMAP
F8
00
70
88
18
68
88
98
64
ENDCHAR
STARTCHAR Eacute
ENCODING 131
SWIDTH 533 0
DWIDTH 8 0
BBX 6 12 1 0
BITMAP
10
20
00
FC
80
80
80
FC
80
80
80
FC
ENDCHAR
STARTCHAR Ntilde
ENCODING 132
SWIDTH 533 0
DWIDTH 8 0
BBX 7 11 0 -2
BITMAP
10
10
10
28
28
44
7C
82
82
04
06
ENDCHAR
STARTCHAR Odieresis
ENCODING 133
SWIDTH 600 0
DWIDTH 9 0
BBX 8 11 0 0
BITMAP
24
00
3C
42
81
81
81
81
81
42
3C
ENDCHAR
STARTCHAR Udieresis
ENCODING 134
SWIDTH 600 0
DWIDTH 9 0
BBX 7 11 1 0
BITMAP
28
00
82
82
82
82
82
82
82
44
38
ENDCHAR
STARTCHAR aacute
ENCODING 135
SWIDTH 466 0
DWIDTH 7 0
BBX 6 10 0 0
BITMAP
10
20
00
70
88
18
68
88
98
64
ENDCHAR
STARTCHAR agrave
ENCODING 136
SWIDTH 466 0
DWIDTH 7 0
BBX 6 9 0 -2
BITMAP
70
88
18
68
88
98
64
08
0C
ENDCHAR
STARTCHAR acircumflex
ENCODING 137
SWIDTH 600 0
DWIDTH 9 0
BBX 7 12 1 0
BITMAP
28
10
00
38
44
82
80
80
80
82
44
38
ENDCHAR
STARTCHAR adieresis
ENCODING 138
SWIDTH 466 0
DWIDTH 7 0
BBX 6 9 0 0
BITMAP
50
00
70
88
18
68
88
98
64
ENDCHAR
STARTCHAR atilde
ENCODING 139
SWIDTH 400 0
DWIDTH 6 0
BBX 5 10 0 0
BITMAP
48
30
00
30
48
80
80
80
48
30
ENDCHAR
STARTCHAR aring
ENCODING 140
SWIDTH 600 0
DWIDTH 9 0
BBX 7 12 1 0
BITMAP
08
10
00
38
44
82
80
80
80
82
44
38
ENDCHAR
STARTCHAR ccedilla
ENCODING 141
SWIDTH 400 0
DWIDTH 6 0
BBX 5 10 0 0
BITMAP
10
20
00
30
48
80
80
80
48
30
ENDCHAR
STARTCHAR eacute
ENCODING 142
SWIDTH 466 0
DWIDTH 7 0
BBX 6 10 0 0
BITMAP
10
20
00
30
48
84
FC
80
48
30
ENDCHAR
STARTCHAR egrave
ENCODING 143
SWIDTH 466 0
DWIDTH 7 0
BBX 6 12 0 0
BITMAP
10
20
00
FC
04
08
10
20
20
40
80
FC
ENDCHAR
STARTCHAR ecircumflex
ENCODING 144
SWIDTH 400 0
DWIDTH 6 0
BBX 5 10 0 0
BITMAP
10
20
00
F8
08
10
20
40
80
F8
ENDCHAR
STARTCHAR edieresis
ENCODING 145
SWIDTH 600 0
DWIDTH 9 0
BBX 7 12 1 0
BITMAP
48
30
00
F8
84
82
82
82
82
82
84
F8
ENDCHAR
STARTCHAR iacute
ENCODING 146
SWIDTH 200 0
DWIDTH 3 0
BBX 2 10 1 0
BITMAP
40
80
00
80
80
80
80
80
80
80
ENDCHAR
STARTCHAR igrave
ENCODING 147
SWIDTH 533 0
DWIDTH 8 0
BBX 8 10 0 0
BITMAP
01
05
06
34
4C
84
84
84
4C
34
ENDCHAR
STARTCHAR icircumflex
ENCODING 148
SWIDTH 533 0
DWIDTH 8 0
BBX 6 11 1 0
BITMAP
FC
00
FC
80
80
80
FC
80
80
80
FC
ENDCHAR
STARTCHAR idieresis
ENCODING 149
SWIDTH 466 0
DWIDTH 7 0
BBX 6 9 0 0
BITMAP
FC
00
30
48
84
FC
80
48
30
ENDCHAR
STARTCHAR ntilde
ENCODING 150
SWIDTH 533 0
DWIDTH 8 0
BBX 6 11 1 0
BITMAP
10
00
FC
80
80
80
FC
80
80
80
FC
ENDCHAR
STARTCHAR oacute
ENCODING 151
SWIDTH 466 0
DWIDTH 7 0
BBX 6 10 0 0
BITMAP
10
20
00
30
48
84
84
84
48
30
ENDCHAR
STARTCHAR ograve
ENCODING 152
SWIDTH 466 0
DWIDTH 7 0
BBX 6 9 0 0
BITMAP
10
00
30
48
84
FC
80
48
30
ENDCHAR
STARTCHAR ocircumflex
ENCODING 153
SWIDTH 466 0
DWIDTH 7 0
BBX 6 10 0 0
BITMAP
30
48
00
30
48
84
84
84
48
30
ENDCHAR
STARTCHAR odieresis
ENCODING 154
SWIDTH 466 0
DWIDTH 7 0
BBX 6 9 0 0
BITMAP
48
00
30
48
84
84
84
48
30
ENDCHAR
STARTCHAR otilde
ENCODING 155
SWIDTH 466 0
DWIDTH 7 0
BBX 6 10 0 0
BITMAP
64
98
00
30
48
84
84
84
48
30
ENDCHAR
STARTCHAR uacute
ENCODING 156
SWIDTH 466 0
DWIDTH 7 0
BBX 5 10 1 0
BITMAP
10
20
00
88
88
88
88
88
98
68
ENDCHAR
STARTCHAR ugrave
ENCODING 157
SWIDTH 533 0
DWIDTH 8 0
BBX 6 12 1 0
BITMAP
48
30
00
FC
80
80
80
FC
80
80
80
FC
ENDCHAR
STARTCHAR ucircumflex
ENCODING 158
SWIDTH 466 0
DWIDTH 7 0
BBX 6 10 0 0
BITMAP
48
30
00
30
48
84
FC
80
48
30
ENDCHAR
STARTCHAR udieresis
ENCODING 159
SWIDTH 466 0
DWIDTH 7 0
BBX 5 9 1 0
BITMAP
50
00
88
88
88
88
88
98
68
ENDCHAR
STARTCHAR dagger
ENCODING 160
SWIDTH 466 0
DWIDTH 7 0
BBX 5 11 1 -2
BITMAP
20
20
F8
20
20
20
20
20
20
20
20
ENDCHAR
STARTCHAR degree
ENCODING 161
SWIDTH 333 0
DWIDTH 5 0
BBX 4 4 0 5
BITMAP
60
90
90
60
ENDCHAR
STARTCHAR cent
ENCODING 162
SWIDTH 533 0
DWIDTH 8 0
BBX 6 11 1 -2
BITMAP
FC
80
80
80
FC
80
80
80
FC
10
18
ENDCHAR
STARTCHAR sterling
ENCODING 163
SWIDTH 466 0
DWIDTH 7 0
BBX 6 9 0 0
BITMAP
30
48
40
F8
40
40
40
44
F8
ENDCHAR
STARTCHAR section
ENCODING 164
SWIDTH 466 0
DWIDTH 7 0
BBX 4 12 1 -3
BITMAP
60
90
80
40
A0
90
90
50
20
10
90
60
ENDCHAR
STARTCHAR bullet
ENCODING 165
SWIDTH 266 0
DWIDTH 4 0
BBX 3 3 0 3
BITMAP
E0
E0
E0
ENDCHAR
STARTCHAR paragraph
ENCODING 166
SWIDTH 400 0
DWIDTH 6 0
BBX 6 12 0 -3
BITMAP
7C
E8
E8
E8
E8
68
28
28
28
28
28
28
ENDCHAR
STARTCHAR germandbls
ENCODING 167
SWIDTH 466 0
DWIDTH 7 0
BBX 5 9 1 0
BITMAP
70
88
88
B0
88
88
88
88
B0
ENDCHAR
STARTCHAR registered
ENCODING 168
SWIDTH 600 0
DWIDTH 9 0
BBX 8 8 0 0
BITMAP
3C
42
B9
A5
B9
A5
42
3C
ENDCHAR
STARTCHAR copyright
ENCODING 169
SWIDTH 600 0
DWIDTH 9 0
BBX 8 8 0 0
BITMAP
3C
42
99
A1
A1
99
42
3C
ENDCHAR
STARTCHAR trademark
ENCODING 170
SWIDTH 733 0
DWIDTH 11 0
BBX 10 5 0 3
BITMAP
F8C0
AD80
2A80
2880
7DC0
ENDCHAR
STARTCHAR acute
ENCODING 171
SWIDTH 466 0
DWIDTH 7 0
BBX 6 9 0 -2
BITMAP
30
48
84
FC
80
48
30
20
30
ENDCHAR
STARTCHAR dieresis
ENCODING 172
SWIDTH 266 0
DWIDTH 4 0
BBX 3 1 0 10
BITMAP
A0
ENDCHAR
STARTCHAR notequal
ENCODING 173
SWIDTH 466 0
DWIDTH 7 0
BBX 6 5 0 1
BITMAP
10
FC
20
FC
40
ENDCHAR
STARTCHAR AE
ENCODING 174
SWIDTH 466 0
DWIDTH 7 0
BBX 6 13 0 -3
BITMAP
08
10
00
34
4C
84
84
84
4C
34
04
48
30
ENDCHAR
STARTCHAR Oslash
ENCODING 175
SWIDTH 200 0
DWIDTH 3 0
BBX 2 12 0 -3
BITMAP
40
40
40
40
40
40
40
40
40
80
80
40
ENDCHAR
STARTCHAR infinity
ENCODING 176
SWIDTH 200 0
DWIDTH 3 0
BBX 2 12 0 -3
BITMAP
40
00
40
40
40
40
40
40
40
80
80
40
ENDCHAR
STARTCHAR plusminus
ENCODING 177
SWIDTH 200 0
DWIDTH 3 0
BBX 3 11 0 0
BITMAP
E0
00
40
40
40
40
40
40
40
40
40
ENDCHAR
STARTCHAR lessequal
ENCODING 178
SWIDTH 466 0
DWIDTH 7 0
BBX 6 6 0 0
BITMAP
0C
30
C0
30
0C
FC
ENDCHAR
STARTCHAR greaterequal
ENCODING 179
SWIDTH 466 0
DWIDTH 7 0
BBX 6 6 0 0
BITMAP
C0
30
0C
30
C0
FC
ENDCHAR
STARTCHAR yen
ENCODING 180
SWIDTH 200 0
DWIDTH 3 0
BBX 3 9 0 0
BITMAP
E0
00
40
40
40
40
40
40
40
ENDCHAR
STARTCHAR mu
ENCODING 181
SWIDTH 533 0
DWIDTH 8 0
BBX 6 12 1 -3
BITMAP
84
88
90
A0
C0
A0
90
88
84
20
20
40
ENDCHAR
STARTCHAR partialdiff
ENCODING 182
SWIDTH 400 0
DWIDTH 6 0
BBX 4 8 1 0
BITMAP
60
10
10
70
90
90
90
60
ENDCHAR
STARTCHAR summation
ENCODING 183
SWIDTH 600 0
DWIDTH 9 0
BBX 7 9 1 -1
BITMAP
FE
42
20
10
08
10
20
42
FE
ENDCHAR
STARTCHAR product
ENCODING 184
SWIDTH 200 0
DWIDTH 3 0
BBX 3 9 0 0
BITMAP
40
40
40
60
C0
40
40
40
40
ENDCHAR
STARTCHAR pi
ENCODING 185
SWIDTH 466 0
DWIDTH 7 0
BBX 5 12 1 -3
BITMAP
80
80
80
80
80
80
80
80
F8
20
20
40
ENDCHAR
STARTCHAR integral
ENCODING 186
SWIDTH 200 0
DWIDTH 3 0
BBX 2 12 0 -3
BITMAP
40
40
40
40
40
40
40
40
40
40
40
80
ENDCHAR
STARTCHAR ordfeminine
ENCODING 187
SWIDTH 466 0
DWIDTH 7 0
BBX 5 10 1 0
BITMAP
20
A0
C0
80
80
80
80
80
80
F8
ENDCHAR
STARTCHAR ordmasculine
ENCODING 188
SWIDTH 266 0
DWIDTH 4 0
BBX 3 10 1 0
BITMAP
20
A0
C0
80
80
80
80
80
80
80
ENDCHAR
STARTCHAR Omega
ENCODING 189
SWIDTH 466 0
DWIDTH 7 0
BBX 5 12 1 0
BITMAP
40
80
00
80
80
80
80
80
80
80
80
F8
ENDCHAR
STARTCHAR ae
ENCODING 190
SWIDTH 200 0
DWIDTH 3 0
BBX 2 12 1 0
BITMAP
40
80
00
80
80
80
80
80
80
80
80
80
ENDCHAR
STARTCHAR oslash
ENCODING 191
SWIDTH 600 0
DWIDTH 9 0
BBX 7 12 1 -3
BITMAP
82
82
C2
A2
92
8A
86
82
82
10
10
20
ENDCHAR
STARTCHAR questiondown
ENCODING 192
SWIDTH 466 0
DWIDTH 7 0
BBX 5 10 1 -3
BITMAP
B0
C8
88
88
88
88
88
20
20
40
ENDCHAR
STARTCHAR exclamdown
ENCODING 193
SWIDTH 600 0
DWIDTH 9 0
BBX 7 12 1 0
BITMAP
08
10
00
82
82
C2
A2
92
8A
86
82
82
ENDCHAR
STARTCHAR logicalnot
ENCODING 194
SWIDTH 600 0
DWIDTH 9 0
BBX 7 3 1 1
BITMAP
FE
02
02
ENDCHAR
STARTCHAR radical
ENCODING 195
SWIDTH 466 0
DWIDTH 7 0
BBX 6 8 0 0
BITMAP
04
04
08
08
D0
50
20
20
ENDCHAR
STARTCHAR florin
ENCODING 196
SWIDTH 466 0
DWIDTH 7 0
BBX 5 10 1 0
BITMAP
10
20
00
B0
C8
88
88
88
88
88
ENDCHAR
STARTCHAR approxequal
ENCODING 197
SWIDTH 600 0
DWIDTH 9 0
BBX 7 12 1 0
BITMAP
28
10
00
82
82
C2
A2
92
8A
86
82
82
ENDCHAR
STARTCHAR Delta
ENCODING 198
SWIDTH 466 0
DWIDTH 7 0
BBX 7 9 0 0
BITMAP
10
10
10
28
28
44
44
82
FE
ENDCHAR
STARTCHAR guillemotleft
ENCODING 199
SWIDTH 466 0
DWIDTH 7 0
BBX 6 5 0 1
BITMAP
24
48
90
48
24
ENDCHAR
STARTCHAR guillemotright
ENCODING 200
SWIDTH 466 0
DWIDTH 7 0
BBX 6 5 1 1
BITMAP
90
48
24
48
90
ENDCHAR
STARTCHAR ellipsis
ENCODING 201
SWIDTH 800 0
DWIDTH 12 0
BBX 9 1 1 0
BITMAP
8880
ENDCHAR
STARTCHAR nbspace
ENCODING 202
SWIDTH 466 0
DWIDTH 7 0
BBX 0 0 0 -3
BITMAP
ENDCHAR
STARTCHAR Agrave
ENCODING 203
SWIDTH 466 0
DWIDTH 7 0
BBX 5 10 1 0
BITMAP
50
20
00
B0
C8
88
88
88
88
88
ENDCHAR
STARTCHAR Atilde
ENCODING 204
SWIDTH 600 0
DWIDTH 9 0
BBX 8 12 0 0
BITMAP
12
24
00
3C
42
81
81
81
81
81
42
3C
ENDCHAR
STARTCHAR Otilde
ENCODING 205
SWIDTH 666 0
DWIDTH 10 0
BBX 8 12 1 0
BITMAP
32
4C
00
3C
42
81
81
81
81
81
42
3C
ENDCHAR
STARTCHAR OE
ENCODING 206
SWIDTH 466 0
DWIDTH 7 0
BBX 6 10 0 0
BITMAP
24
48
00
30
48
84
84
84
48
30
ENDCHAR
STARTCHAR oe
ENCODING 207
SWIDTH 600 0
DWIDTH 9 0
BBX 8 11 0 0
BITMAP
7E
00
3C
42
81
81
81
81
81
42
3C
ENDCHAR
STARTCHAR endash
ENCODING 208
SWIDTH 466 0
DWIDTH 7 0
BBX 6 1 0 3
BITMAP
FC
ENDCHAR
STARTCHAR emdash
ENCODING 209
SWIDTH 800 0
DWIDTH 12 0
BBX 10 1 1 3
BITMAP
FFC0
ENDCHAR
STARTCHAR quotedblleft
ENCODING 210
SWIDTH 266 0
DWIDTH 4 0
BBX 4 3 0 6
BITMAP
50
A0
A0
ENDCHAR
STARTCHAR quotedblright
ENCODING 211
SWIDTH 266 0
DWIDTH 4 0
BBX 4 3 0 6
BITMAP
50
50
A0
ENDCHAR
STARTCHAR quoteleft
ENCODING 212
SWIDTH 200 0
DWIDTH 3 0
BBX 2 3 0 6
BITMAP
40
80
80
ENDCHAR
STARTCHAR quoteright
ENCODING 213
SWIDTH 200 0
DWIDTH 3 0
BBX 2 3 0 6
BITMAP
40
40
80
ENDCHAR
STARTCHAR divide
ENCODING 214
SWIDTH 466 0
DWIDTH 7 0
BBX 5 5 1 1
BITMAP
20
00
F8
00
20
ENDCHAR
STARTCHAR lozenge
ENCODING 215
SWIDTH 400 0
DWIDTH 6 0
BBX 5 8 0 0
BITMAP
20
20
50
88
88
50
20
20
ENDCHAR
STARTCHAR ydieresis
ENCODING 216
SWIDTH 466 0
DWIDTH 7 0
BBX 6 9 0 0
BITMAP
FC
00
30
48
84
84
84
48
30
ENDCHAR
STARTCHAR Ydieresis
ENCODING 217
SWIDTH 533 0
DWIDTH 8 0
BBX 6 12 1 0
BITMAP
10
20
00
F8
84
84
84
84
F8
84
84
84
ENDCHAR
STARTCHAR fraction
ENCODING 218
SWIDTH 266 0
DWIDTH 4 0
BBX 4 10 0 0
BITMAP
20
40
00
B0
C0
80
80
80
80
80
ENDCHAR
STARTCHAR currency
ENCODING 219
SWIDTH 533 0
DWIDTH 8 0
BBX 6 12 1 0
BITMAP
48
30
00
F8
84
84
84
84
F8
84
84
84
ENDCHAR
STARTCHAR guilsinglleft
ENCODING 220
SWIDTH 266 0
DWIDTH 4 0
BBX 3 5 0 1
BITMAP
20
40
80
40
20
ENDCHAR
STARTCHAR guilsinglright
ENCODING 221
SWIDTH 266 0
DWIDTH 4 0
BBX 3 5 0 1
BITMAP
80
40
20
40
80
ENDCHAR
STARTCHAR fi
ENCODING 222
SWIDTH 266 0
DWIDTH 4 0
BBX 4 10 0 0
BITMAP
90
60
00
B0
C0
80
80
80
80
80
ENDCHAR
STARTCHAR fl
ENCODING 223
SWIDTH 533 0
DWIDTH 8 0
BBX 6 12 1 -3
BITMAP
F8
84
84
84
84
F8
84
84
84
20
20
40
ENDCHAR
STARTCHAR daggerdbl
ENCODING 224
SWIDTH 266 0
DWIDTH 4 0
BBX 4 10 0 -3
BITMAP
B0
C0
80
80
80
80
80
40
40
80
ENDCHAR
STARTCHAR periodcentered
ENCODING 225
SWIDTH 600 0
DWIDTH 9 0
BBX 6 12 1 0
BITMAP
48
30
00
78
84
80
60
18
04
04
84
78
ENDCHAR
STARTCHAR quotesinglbase
ENCODING 226
SWIDTH 200 0
DWIDTH 3 0
BBX 2 3 0 -2
BITMAP
40
40
80
ENDCHAR
STARTCHAR quotedblbase
ENCODING 227
SWIDTH 333 0
DWIDTH 5 0
BBX 4 3 0 -2
BITMAP
50
50
A0
ENDCHAR
STARTCHAR perthousand
ENCODING 228
SWIDTH 400 0
DWIDTH 6 0
BBX 5 10 0 0
BITMAP
50
20
00
70
88
80
70
08
88
70
ENDCHAR
STARTCHAR Acircumflex
ENCODING 229
SWIDTH 600 0
DWIDTH 9 0
BBX 6 12 1 0
BITMAP
10
20
00
78
84
80
60
18
04
04
84
78
ENDCHAR
STARTCHAR Ecircumflex
ENCODING 230
SWIDTH 400 0
DWIDTH 6 0
BBX 5 10 0 0
BITMAP
10
20
00
70
88
80
70
08
88
70
ENDCHAR
STARTCHAR Aacute
ENCODING 231
SWIDTH 533 0
DWIDTH 8 0
BBX 7 12 0 0
BITMAP
08
10
00
10
10
10
28
28
44
7C
82
82
ENDCHAR
STARTCHAR Edieresis
ENCODING 232
SWIDTH 466 0
DWIDTH 7 0
BBX 7 12 0 0
BITMAP
28
10
00
FE
10
10
10
10
10
10
10
10
ENDCHAR
STARTCHAR Egrave
ENCODING 233
SWIDTH 266 0
DWIDTH 4 0
BBX 3 10 0 0
BITMAP
20
A0
80
E0
80
80
80
80
80
60
ENDCHAR
STARTCHAR Iacute
ENCODING 234
SWIDTH 200 0
DWIDTH 3 0
BBX 2 12 1 0
BITMAP
40
80
00
80
80
80
80
80
80
80
80
80
ENDCHAR
STARTCHAR Icircumflex
ENCODING 235
SWIDTH 466 0
DWIDTH 7 0
BBX 6 12 0 0
BITMAP
48
30
00
FC
04
08
10
20
20
40
80
FC
ENDCHAR
STARTCHAR Idieresis
ENCODING 236
SWIDTH 400 0
DWIDTH 6 0
BBX 5 10 0 0
BITMAP
50
20
00
F8
08
10
20
40
80
F8
ENDCHAR
STARTCHAR Igrave
ENCODING 237
SWIDTH 600 0
DWIDTH 9 0
BBX 7 11 1 0
BITMAP
7C
00
82
82
82
82
82
82
82
44
38
ENDCHAR
STARTCHAR Oacute
ENCODING 238
SWIDTH 600 0
DWIDTH 9 0
BBX 8 12 0 0
BITMAP
04
08
00
3C
42
81
81
81
81
81
42
3C
ENDCHAR
STARTCHAR Ocircumflex
ENCODING 239
SWIDTH 666 0
DWIDTH 10 0
BBX 8 12 1 0
BITMAP
18
24
00
3C
42
81
81
81
81
81
42
3C
ENDCHAR
STARTCHAR apple
ENCODING 240
SWIDTH 466 0
DWIDTH 7 0
BBX 5 9 1 0
BITMAP
F8
00
88
88
88
88
88
98
68
ENDCHAR
STARTCHAR Ograve
ENCODING 241
SWIDTH 600 0
DWIDTH 9 0
BBX 7 12 1 0
BITMAP
10
28
10
82
82
82
82
82
82
82
44
38
ENDCHAR
STARTCHAR Uacute
ENCODING 242
SWIDTH 600 0
DWIDTH 9 0
BBX 7 12 1 0
BITMAP
08
10
00
82
82
82
82
82
82
82
44
38
ENDCHAR
STARTCHAR Ucircumflex
ENCODING 243
SWIDTH 466 0
DWIDTH 7 0
BBX 5 10 1 0
BITMAP
20
50
20
88
88
88
88
88
98
68
ENDCHAR
STARTCHAR Ugrave
ENCODING 244
SWIDTH 600 0
DWIDTH 9 0
BBX 7 12 1 0
BITMAP
14
28
00
82
82
82
82
82
82
82
44
38
ENDCHAR
STARTCHAR dotlessi
ENCODING 245
SWIDTH 466 0
DWIDTH 7 0
BBX 5 10 1 0
BITMAP
28
50
00
88
88
88
88
88
98
68
ENDCHAR
STARTCHAR circumflex
ENCODING 246
SWIDTH 600 0
DWIDTH 9 0
BBX 7 12 1 -3
BITMAP
82
82
82
82
82
82
82
44
38
08
08
04
ENDCHAR
STARTCHAR tilde
ENCODING 247
SWIDTH 466 0
DWIDTH 7 0
BBX 5 10 1 -3
BITMAP
88
88
88
88
88
98
68
10
10
08
ENDCHAR
STARTCHAR macron
ENCODING 248
SWIDTH 533 0
DWIDTH 8 0
BBX 7 12 0 0
BITMAP
08
10
00
82
44
28
10
10
10
10
10
10
ENDCHAR
STARTCHAR breve
ENCODING 249
SWIDTH 400 0
DWIDTH 6 0
BBX 5 13 0 -3
BITMAP
10
20
00
88
88
88
50
50
20
20
40
40
80
ENDCHAR
STARTCHAR dotaccent
ENCODING 250
SWIDTH 400 0
DWIDTH 6 0
BBX 5 12 0 -3
BITMAP
80
80
88
90
A0
C0
A0
90
88
20
20
40
ENDCHAR
STARTCHAR ring
ENCODING 251
SWIDTH 466 0
DWIDTH 7 0
BBX 6 11 0 0
BITMAP
10
00
FC
04
08
10
20
20
40
80
FC
ENDCHAR
STARTCHAR cedilla
ENCODING 252
SWIDTH 466 0
DWIDTH 7 0
BBX 6 9 0 0
BITMAP
40
40
40
60
C0
40
40
40
7C
ENDCHAR
STARTCHAR hungarumlaut
ENCODING 253
SWIDTH 400 0
DWIDTH 6 0
BBX 5 9 0 0
BITMAP
20
00
F8
08
10
20
40
80
F8
ENDCHAR
STARTCHAR ogonek
ENCODING 254
SWIDTH 600 0
DWIDTH 9 0
BBX 7 12 1 -3
BITMAP
38
44
82
80
8E
82
82
46
3A
10
10
20
ENDCHAR
STARTCHAR caron
ENCODING 255
SWIDTH 333 0
DWIDTH 5 0
BBX 3 2 1 7
BITMAP
A0
40
ENDCHAR
ENDFONT
